<svg width="46" height="46" viewBox="0 0 46 46" fill="none" xmlns="http://www.w3.org/2000/svg">
<path d="M22.9167 34.375C23.566 34.375 24.1106 34.155 24.5506 33.715C24.9906 33.275 25.2099 32.7311 25.2083 32.0833V22.9167C25.2083 22.2674 24.9883 21.7235 24.5483 21.285C24.1083 20.8465 23.5644 20.6265 22.9167 20.625C22.2689 20.6235 21.725 20.8435 21.285 21.285C20.845 21.7265 20.625 22.2704 20.625 22.9167V32.0833C20.625 32.7326 20.845 33.2773 21.285 33.7173C21.725 34.1573 22.2689 34.3765 22.9167 34.375ZM22.9167 16.0417C23.566 16.0417 24.1106 15.8217 24.5506 15.3817C24.9906 14.9417 25.2099 14.3978 25.2083 13.75C25.2068 13.1022 24.9868 12.5583 24.5483 12.1183C24.1099 11.6783 23.566 11.4583 22.9167 11.4583C22.2674 11.4583 21.7235 11.6783 21.285 12.1183C20.8465 12.5583 20.6265 13.1022 20.625 13.75C20.6235 14.3978 20.8435 14.9424 21.285 15.384C21.7265 15.8255 22.2704 16.0447 22.9167 16.0417ZM22.9167 45.8333C19.7465 45.8333 16.7674 45.2314 13.9792 44.0275C11.191 42.8236 8.76563 41.1912 6.70313 39.1302C4.64063 37.0692 3.0082 34.6439 1.80584 31.8542C0.603475 29.0644 0.00153068 26.0853 2.90084e-06 22.9167C-0.00152488 19.7481 0.60042 16.7689 1.80584 13.9792C3.01125 11.1894 4.64368 8.7641 6.70313 6.70313C8.76257 4.64215 11.1879 3.00972 13.9792 1.80583C16.7704 0.601945 19.7496 0 22.9167 0C26.0838 0 29.0629 0.601945 31.8542 1.80583C34.6454 3.00972 37.0708 4.64215 39.1302 6.70313C41.1897 8.7641 42.8228 11.1894 44.0298 13.9792C45.2367 16.7689 45.8379 19.7481 45.8333 22.9167C45.8288 26.0853 45.2268 29.0644 44.0275 31.8542C42.8282 34.6439 41.1958 37.0692 39.1302 39.1302C37.0647 41.1912 34.6393 42.8244 31.8542 44.0298C29.069 45.2352 26.0899 45.8364 22.9167 45.8333Z" fill="#9651F3"/>
</svg>
